<?xml version="1.0" encoding="UTF-8"?>
<svg width="14px" height="14px" viewBox="0 0 14 14" version="1.1" xmlns="http://www.w3.org/2000/svg" xmlns:xlink="http://www.w3.org/1999/xlink">
    <!-- Generator: Sketch 51.3 (57544) - http://www.bohemiancoding.com/sketch -->
    <title>Color/Icon/Grey</title>
    <desc>Created with Sketch.</desc>
    <defs></defs>
    <g id="Symbols" stroke="none" stroke-width="1" fill="none" fill-rule="evenodd">
        <g id="Icon/Upload-Copy" fill-rule="nonzero">
            <g id="Color/Icon/Grey">
                <path d="M12.6451613,8.02033898 C12.6451613,7.65339725 12.9484523,7.3559322 13.3225806,7.3559322 C13.696709,7.3559322 14,7.65339725 14,8.02033898 L14,11.5638418 C14,12.9092948 12.8879331,14 11.516129,14 L2.48387097,14 C1.11206691,14 0,12.9092948 0,11.5638418 L0,8.02033898 C0,7.65339725 0.303290976,7.3559322 0.677419355,7.3559322 C1.05154773,7.3559322 1.35483871,7.65339725 1.35483871,8.02033898 L1.35483871,11.5638418 C1.35483871,12.1754114 1.86032367,12.6711864 2.48387097,12.6711864 L11.516129,12.6711864 C12.1396763,12.6711864 12.6451613,12.1754114 12.6451613,11.5638418 L12.6451613,8.02033898 Z" id="Mask" fill="#9BA0C3"></path>
                <g id="Group" transform="translate(7.000000, 5.500000) scale(1, -1) translate(-7.000000, -5.500000) translate(3.000000, 0.000000)" fill="#FFFFFF">
                    <path d="M6.30502525,4.06268618 C6.57839226,4.34068653 7.02160774,4.34068653 7.29497475,4.06268618 C7.56834175,3.78468584 7.56834175,3.33395823 7.29497475,3.05595788 L4.49497475,0.208500257 C4.22160774,-0.0695000858 3.77839226,-0.0695000858 3.50502525,0.208500257 L0.705025253,3.05595788 C0.431658249,3.33395823 0.431658249,3.78468584 0.705025253,4.06268618 C0.978392257,4.34068653 1.42160774,4.34068653 1.69497475,4.06268618 L4,1.71859271 L6.30502525,4.06268618 Z" id="Path-5"></path>
                    <path d="M4.7,7.3559322 C4.7,7.74908406 4.38659932,8.06779661 4,8.06779661 C3.61340068,8.06779661 3.3,7.74908406 3.3,7.3559322 L3.3,0.711864407 C3.3,0.318712551 3.61340068,0 4,0 C4.38659932,0 4.7,0.318712551 4.7,0.711864407 L4.7,7.3559322 Z" id="Path-6"></path>
                    <path d="M4.7,9.71715568 C4.7,10.1103075 4.38659932,10.4290201 4,10.4290201 C3.61340068,10.4290201 3.3,10.1103075 3.3,9.71715568 L3.3,9.71186441 C3.3,9.31871255 3.61340068,9 4,9 C4.38659932,9 4.7,9.31871255 4.7,9.71186441 L4.7,9.71715568 Z" id="Path-6"></path>
                </g>
            </g>
        </g>
    </g>
</svg>