<?xml version="1.0" encoding="UTF-8"?>
<svg width="14px" height="14px" viewBox="0 0 14 14" version="1.1" xmlns="http://www.w3.org/2000/svg" xmlns:xlink="http://www.w3.org/1999/xlink">
    <!-- Generator: Sketch 51.3 (57544) - http://www.bohemiancoding.com/sketch -->
    <title>Group 3 Copy 2</title>
    <desc>Created with Sketch.</desc>
    <defs></defs>
    <g id="Page-1" stroke="none" stroke-width="1" fill="none" fill-rule="evenodd">
        <g id="Desktop-HD-Copy" transform="translate(-1331.000000, -603.000000)" fill-rule="nonzero">
            <g id="Group-2-Copy" transform="translate(1265.000000, 532.000000)">
                <g id="Group-3" transform="translate(23.000000, 70.000000)">
                    <g id="Group-3-Copy-2" transform="translate(43.000000, 1.000000)">
                        <path d="M9.94,10.71 L11.06,10.71 L11.06,12.46 C11.06,13.2331986 10.4331986,13.86 9.66,13.86 L1.54,13.86 C0.76680135,13.86 0.14,13.2331986 0.14,12.46 L0.14,4.34 C0.14,3.56680135 0.76680135,2.94 1.54,2.94 L3.5,2.94 L3.5,4.06 L1.54,4.06 C1.38536027,4.06 1.26,4.18536027 1.26,4.34 L1.26,12.46 C1.26,12.6146397 1.38536027,12.74 1.54,12.74 L9.66,12.74 C9.81463973,12.74 9.94,12.6146397 9.94,12.46 L9.94,10.71 Z" id="Rectangle" fill="#9BA0C3"></path>
                        <path d="M9.87,1.26 C9.56072054,1.26 9.31,1.00927946 9.31,0.7 C9.31,0.39072054 9.56072054,0.14 9.87,0.14 L12.46,0.14 C13.2331986,0.14 13.86,0.76680135 13.86,1.54 L13.86,4.2 C13.86,4.50927946 13.6092795,4.76 13.3,4.76 C12.9907205,4.76 12.74,4.50927946 12.74,4.2 L12.74,1.54 C12.74,1.38536027 12.6146397,1.26 12.46,1.26 L9.87,1.26 Z M12.74,6.16 C12.74,5.85072054 12.9907205,5.6 13.3,5.6 C13.6092795,5.6 13.86,5.85072054 13.86,6.16 L13.86,9.8 C13.86,10.5731986 13.2331986,11.2 12.46,11.2 L4.34,11.2 C3.56680135,11.2 2.94,10.5731986 2.94,9.8 L2.94,1.54 C2.94,0.76680135 3.56680135,0.14 4.34,0.14 L7.91,0.14 C8.21927946,0.14 8.47,0.39072054 8.47,0.7 C8.47,1.00927946 8.21927946,1.26 7.91,1.26 L4.34,1.26 C4.18536027,1.26 4.06,1.38536027 4.06,1.54 L4.06,9.8 C4.06,9.95463973 4.18536027,10.08 4.34,10.08 L12.46,10.08 C12.6146397,10.08 12.74,9.95463973 12.74,9.8 L12.74,6.16 Z" id="Rectangle-6" fill="#5A45FF"></path>
                        <path d="M8.1659798,6.6259798 C7.94728619,6.8446734 7.59271381,6.8446734 7.3740202,6.6259798 C7.1553266,6.40728619 7.1553266,6.05271381 7.3740202,5.8340202 L12.5540202,0.654020203 C12.7727138,0.435326599 13.1272862,0.435326599 13.3459798,0.654020203 C13.5646734,0.872713806 13.5646734,1.22728619 13.3459798,1.4459798 L8.1659798,6.6259798 Z" id="Path-2" fill="#5A45FF"></path>
                    </g>
                </g>
            </g>
        </g>
    </g>
</svg>