<?xml version="1.0" encoding="UTF-8"?>
<svg width="219px" height="32px" viewBox="0 0 219 32" version="1.1" xmlns="http://www.w3.org/2000/svg" xmlns:xlink="http://www.w3.org/1999/xlink">
    <!-- Generator: Sketch 51.3 (57544) - http://www.bohemiancoding.com/sketch -->
    <title>Logo</title>
    <desc>Created with Sketch.</desc>
    <defs></defs>
    <g id="Page-1" stroke="none" stroke-width="1" fill="none" fill-rule="evenodd">
        <g id="Desktop-HD" transform="translate(-72.000000, -58.000000)" fill="#FFFFFF">
            <g id="Logo" transform="translate(72.000000, 58.000000)">
                <g id="Group-7">
                    <path d="M62.9724295,10.8418367 C64.6596125,10.8418367 66.0200318,11.3388556 67.0537284,12.3329082 C68.087425,13.3269608 68.6042655,14.7227801 68.6042655,16.5204082 L68.6042655,28.7346939 L65.5210135,28.7346939 L65.5210135,17.3239796 C65.5210135,16.0501637 65.200216,15.0858876 64.5586112,14.4311224 C63.9170064,13.7763573 63.1031311,13.4489796 62.1169608,13.4489796 C61.0119748,13.4489796 60.1208704,13.8180235 59.443621,14.5561224 C58.7663715,15.2942214 58.4277518,16.4013532 58.4277518,17.877551 L58.4277518,28.7346939 L55.2910331,28.7346939 L55.2910331,17.4489796 C55.2910331,16.1275444 54.9672651,15.1305306 54.3197196,14.4579082 C53.672174,13.7852858 52.843447,13.4489796 51.8335135,13.4489796 C50.7404091,13.4489796 49.8522751,13.826952 49.1690848,14.5829082 C48.4858946,15.3388643 48.1443045,16.4727816 48.1443045,17.9846939 L48.1443045,28.7346939 L45.0610526,28.7346939 L45.0610526,11.1811224 L48.1443045,11.1811224 L48.1443045,13.4489796 C48.6552121,12.6156421 49.3235403,11.9727914 50.1493094,11.5204082 C50.9750785,11.0680249 51.9047974,10.8418367 52.938494,10.8418367 C54.0672431,10.8418367 55.06528,11.0888581 55.9326346,11.5829082 C56.7999892,12.0769583 57.4475251,12.7882607 57.8752616,13.7168367 C58.3980507,12.7882607 59.0990528,12.0769583 59.9782889,11.5829082 C60.8575251,11.0888581 61.855562,10.8418367 62.9724295,10.8418367 Z M78.6203788,29.0739796 C77.0638931,29.0739796 75.7836732,28.6721979 74.7796805,27.8686224 C73.7756879,27.065047 73.2736991,25.8656542 73.2736991,24.2704082 C73.2736991,23.3894514 73.4340979,22.6245781 73.7549003,21.9757653 C74.0757026,21.3269525 74.5509583,20.7942198 75.1806815,20.377551 C75.8104047,19.9608823 76.4965551,19.6305284 77.2391532,19.3864796 C77.9817513,19.1424308 78.8698853,18.9311233 79.9035819,18.752551 L82.7373221,18.2882653 C83.7710187,18.0977882 84.2878592,17.5561269 84.2878592,16.6632653 C84.2878592,15.4727832 83.9225064,14.6007681 83.1917899,14.0471939 C82.4610734,13.4936197 81.5372952,13.2168367 80.4204276,13.2168367 C79.3273232,13.2168367 78.412456,13.4846912 77.6757987,14.0204082 C76.9391414,14.5561251 76.5054706,15.3775455 76.3747733,16.4846939 L73.5944999,15.8954082 C73.8558944,14.2287332 74.5866,12.9757695 75.7866385,12.1364796 C76.9866771,11.2971897 78.5787836,10.877551 80.5630057,10.877551 C81.4897682,10.877551 82.3363173,10.9817166 83.1026786,11.190051 C83.8690398,11.3983854 84.5759826,11.7257631 85.2235282,12.1721939 C85.8710737,12.6186247 86.3760329,13.2495708 86.7384208,14.065051 C87.1008086,14.8805313 87.2819999,15.8418312 87.2819999,16.9489796 L87.2819999,24.1989796 C87.2819999,25.103746 87.4156655,25.713859 87.6830008,26.0293367 C87.9503362,26.3448145 88.4107401,26.502551 89.0642264,26.502551 L89.3493827,26.502551 L89.3493827,28.7346939 L87.8166678,28.7346939 C85.9274982,28.7346939 84.8225288,27.9430351 84.5017264,26.3596939 L84.3591483,26.3596939 C83.0284125,28.1692267 81.1155084,29.0739796 78.6203788,29.0739796 Z M79.3332694,26.5739796 C80.889755,26.5739796 82.1432419,26.0085091 83.0937674,24.877551 C84.044293,23.746593 84.5195487,22.1989894 84.5195487,20.2346939 L79.8857596,21.127551 C78.6619579,21.329933 77.7560018,21.6543345 77.1678641,22.1007653 C76.5797264,22.5471961 76.285662,23.1870707 76.285662,24.0204082 C76.285662,24.8894601 76.567845,25.5323108 77.1322196,25.9489796 C77.6965942,26.3656483 78.4302701,26.5739796 79.3332694,26.5739796 Z M99.1872733,28.7346939 C97.7377218,28.7346939 96.5971082,28.3150552 95.7653983,27.4757653 C94.9336884,26.6364754 94.5178397,25.4668442 94.5178397,23.9668367 L94.5178397,13.6454082 L90.9355643,13.6454082 L90.9355643,11.1811224 L92.254412,11.1811224 C93.1692928,11.1811224 93.8138583,10.9757674 94.1881278,10.565051 C94.5623972,10.1543347 94.7495292,9.46684156 94.7495292,8.50255102 L94.7495292,5.32397959 L97.6189139,5.32397959 L97.6189139,11.1811224 L101.646746,11.1811224 L101.646746,13.6454082 L97.6189139,13.6454082 L97.6189139,23.6454082 C97.6189139,24.4787457 97.84169,25.1245725 98.2872489,25.5829082 C98.7328078,26.0412438 99.3179663,26.2704082 100.042742,26.2704082 L101.646746,26.2704082 L101.646746,28.7346939 L99.1872733,28.7346939 Z M109.934099,29.0739796 C108.377614,29.0739796 107.097394,28.6721979 106.093401,27.8686224 C105.089409,27.065047 104.58742,25.8656542 104.58742,24.2704082 C104.58742,23.3894514 104.747819,22.6245781 105.068621,21.9757653 C105.389423,21.3269525 105.864679,20.7942198 106.494402,20.377551 C107.124125,19.9608823 107.810276,19.6305284 108.552874,19.3864796 C109.295472,19.1424308 110.183606,18.9311233 111.217303,18.752551 L114.051043,18.2882653 C115.084739,18.0977882 115.60158,17.5561269 115.60158,16.6632653 C115.60158,15.4727832 115.236227,14.6007681 114.505511,14.0471939 C113.774794,13.4936197 112.851016,13.2168367 111.734148,13.2168367 C110.641044,13.2168367 109.726177,13.4846912 108.989519,14.0204082 C108.252862,14.5561251 107.819191,15.3775455 107.688494,16.4846939 L104.908221,15.8954082 C105.169615,14.2287332 105.900321,12.9757695 107.100359,12.1364796 C108.300398,11.2971897 109.892504,10.877551 111.876726,10.877551 C112.803489,10.877551 113.650038,10.9817166 114.416399,11.190051 C115.182761,11.3983854 115.889703,11.7257631 116.537249,12.1721939 C117.184794,12.6186247 117.689754,13.2495708 118.052141,14.065051 C118.414529,14.8805313 118.595721,15.8418312 118.595721,16.9489796 L118.595721,24.1989796 C118.595721,25.103746 118.729386,25.713859 118.996722,26.0293367 C119.264057,26.3448145 119.724461,26.502551 120.377947,26.502551 L120.663103,26.502551 L120.663103,28.7346939 L119.130389,28.7346939 C117.241219,28.7346939 116.13625,27.9430351 115.815447,26.3596939 L115.672869,26.3596939 C114.342133,28.1692267 112.429229,29.0739796 109.934099,29.0739796 Z M110.64699,26.5739796 C112.203476,26.5739796 113.456963,26.0085091 114.407488,24.877551 C115.358014,23.746593 115.833269,22.1989894 115.833269,20.2346939 L111.19948,21.127551 C109.975679,21.329933 109.069723,21.6543345 108.481585,22.1007653 C107.893447,22.5471961 107.599383,23.1870707 107.599383,24.0204082 C107.599383,24.8894601 107.881566,25.5323108 108.44594,25.9489796 C109.010315,26.3656483 109.743991,26.5739796 110.64699,26.5739796 Z M136.168474,28.7346939 L129.538592,20.6096939 L128.130633,20.6096939 L128.130633,28.7346939 L125.011736,28.7346939 L125.011736,1.30612245 L128.130633,1.30612245 L128.130633,18.252551 L129.44948,18.252551 L135.526873,11.1811224 L139.180437,11.1811224 L132.104998,19.1989796 L140.107195,28.7346939 L136.168474,28.7346939 Z M154.471941,11.1811224 L157.555193,11.1811224 L157.555193,28.7346939 L154.596697,28.7346939 L154.525408,26.4132653 C153.978856,27.2704124 153.254091,27.928144 152.351092,28.3864796 C151.448092,28.8448152 150.426293,29.0739796 149.285662,29.0739796 C147.444019,29.0739796 145.973696,28.544223 144.874651,27.4846939 C143.775606,26.4251648 143.226092,24.9311321 143.226092,23.002551 L143.226092,11.1811224 L146.309344,11.1811224 L146.309344,22.3061224 C146.309344,23.7108914 146.668756,24.7584999 147.387591,25.4489796 C148.106426,26.1394592 149.024263,26.4846939 150.141131,26.4846939 C151.412459,26.4846939 152.44911,26.079936 153.251116,25.2704082 C154.053122,24.4608803 154.46006,23.2644637 154.471941,21.6811224 L154.471941,11.1811224 Z M173.114031,10.8418367 C175.395293,10.8418367 177.326019,11.6870664 178.906267,13.377551 C180.486516,15.0680357 181.276629,17.2644423 181.276629,19.9668367 C181.276629,22.681136 180.492457,24.8834949 178.92409,26.5739796 C177.355722,28.2644642 175.419056,29.1096939 173.114031,29.1096939 C171.735769,29.1096939 170.491193,28.7704116 169.380266,28.0918367 C168.26934,27.4132619 167.434672,26.4906521 166.876238,25.3239796 L166.804949,28.7346939 L163.828631,28.7346939 L163.828631,1.30612245 L166.89406,1.30612245 L166.911883,14.5382653 C167.482198,13.3954024 168.316866,12.4936258 169.415911,11.8329082 C170.514956,11.1721906 171.747651,10.8418367 173.114031,10.8418367 Z M172.436785,26.4311224 C174.06456,26.4311224 175.43092,25.8329141 176.535906,24.6364796 C177.640892,23.440045 178.193377,21.883513 178.193377,19.9668367 C178.193377,18.0501605 177.640892,16.4936284 176.535906,15.2971939 C175.43092,14.1007593 174.06456,13.502551 172.436785,13.502551 C170.832773,13.502551 169.478294,14.1215924 168.373308,15.3596939 C167.268322,16.5977953 166.715838,18.1334942 166.715838,19.9668367 C166.715838,21.8120841 167.265352,23.3507591 168.364397,24.5829082 C169.463443,25.8150572 170.820892,26.4311224 172.436785,26.4311224 Z M197.031512,11.1811224 L200.114764,11.1811224 L200.114764,28.7346939 L197.156267,28.7346939 L197.084978,26.4132653 C196.538426,27.2704124 195.813661,27.928144 194.910662,28.3864796 C194.007663,28.8448152 192.985863,29.0739796 191.845232,29.0739796 C190.003589,29.0739796 188.533267,28.544223 187.434222,27.4846939 C186.335176,26.4251648 185.785662,24.9311321 185.785662,23.002551 L185.785662,11.1811224 L188.868914,11.1811224 L188.868914,22.3061224 C188.868914,23.7108914 189.228326,24.7584999 189.947161,25.4489796 C190.665996,26.1394592 191.583833,26.4846939 192.700701,26.4846939 C193.972029,26.4846939 195.00868,26.079936 195.810686,25.2704082 C196.612692,24.4608803 197.01963,23.2644637 197.031512,21.6811224 L197.031512,11.1811224 Z M211.930926,29.0739796 C210.041756,29.0739796 208.467472,28.6513648 207.208025,27.8061224 C205.948579,26.9608801 205.182229,25.7585112 204.908953,24.1989796 L207.600115,23.4311224 C207.79022,24.4787467 208.268446,25.2912386 209.034807,25.8686224 C209.801169,26.4460063 210.760591,26.7346939 211.913103,26.7346939 C212.530945,26.7346939 213.092341,26.6573137 213.597307,26.502551 C214.102274,26.3477883 214.532975,26.0591008 214.889422,25.6364796 C215.245869,25.2138584 215.418149,24.6811257 215.406267,24.0382653 C215.394386,23.7763592 215.34686,23.5352902 215.263689,23.315051 C215.180518,23.0948118 215.085467,22.9013614 214.978533,22.7346939 C214.871599,22.5680264 214.705259,22.4073137 214.47951,22.252551 C214.25376,22.0977883 214.051776,21.9727896 213.873553,21.877551 C213.695329,21.7823124 213.430968,21.6721945 213.080462,21.5471939 C212.729955,21.4221933 212.447772,21.3269561 212.233904,21.2614796 C212.020036,21.1960031 211.693298,21.1007659 211.25368,20.9757653 C210.814061,20.8507647 210.475442,20.7525514 210.23781,20.6811224 C209.501153,20.4549308 208.895202,20.2406473 208.419939,20.0382653 C207.944677,19.8358833 207.451599,19.5531481 206.940691,19.190051 C206.429784,18.826954 206.046609,18.3656491 205.791155,17.8061224 C205.535701,17.2465958 205.407976,16.5918405 205.407976,15.8418367 C205.407976,14.7346883 205.69313,13.8001739 206.263445,13.0382653 C206.833761,12.2763567 207.573377,11.725767 208.482317,11.3864796 C209.391257,11.0471922 210.427909,10.877551 211.592303,10.877551 C213.279486,10.877551 214.702282,11.2584996 215.860735,12.0204082 C217.019188,12.7823167 217.729101,13.9251624 217.990496,15.4489796 L215.459734,16.0918367 C215.269629,15.1037366 214.824077,14.3626725 214.123064,13.8686224 C213.422052,13.3745724 212.584414,13.127551 211.610125,13.127551 C210.695244,13.127551 209.911072,13.3329061 209.257586,13.7436224 C208.604099,14.1543388 208.277361,14.7823087 208.277361,15.627551 C208.277361,15.9846957 208.363501,16.3090972 208.535784,16.6007653 C208.708067,16.8924334 208.883317,17.1215978 209.061541,17.2882653 C209.239764,17.4549328 209.560562,17.6305263 210.023943,17.815051 C210.487324,17.9995758 210.831885,18.1245745 211.057635,18.190051 C211.283384,18.2555275 211.711115,18.3656455 212.340838,18.5204082 C212.459653,18.5561226 212.548764,18.5799319 212.608172,18.5918367 C213.297303,18.7704091 213.858699,18.9281456 214.292376,19.065051 C214.726053,19.2019565 215.231012,19.41624 215.807268,19.7079082 C216.383525,19.9995763 216.837988,20.3180255 217.170672,20.6632653 C217.503356,21.0085051 217.788509,21.4608816 218.02614,22.0204082 C218.263772,22.5799348 218.382586,23.2108808 218.382586,23.9132653 C218.382586,24.8061269 218.207335,25.5948095 217.856829,26.2793367 C217.506323,26.963864 217.028097,27.5025491 216.422137,27.8954082 C215.816177,28.2882673 215.135967,28.5829072 214.381487,28.7793367 C213.627007,28.9757663 212.810162,29.0739796 211.930926,29.0739796 Z" id="matakubus"></path>
                    <path d="M16.8847107,0.580836172 L27.0375265,6.28936113 C28.4542712,7.08594033 29.3303571,8.57997261 29.3303571,10.1994375 L29.3303571,21.4489142 C29.3303571,23.0683791 28.4542712,24.5624113 27.0375265,25.3589905 L16.8847107,31.0675155 C15.5073268,31.8419637 13.8230303,31.8419637 12.4456464,31.0675155 L2.29283054,25.3589905 C0.876085931,24.5624113 0,23.0683791 0,21.4489142 L0,10.1994375 C0,8.57997261 0.876085931,7.08594033 2.29283054,6.28936113 L12.4456464,0.580836172 C13.8230303,-0.193612053 15.5073268,-0.193612053 16.8847107,0.580836172 Z M15.4895525,1.21724429 L5.90831652,6.22593266 C5.73746226,6.31524845 5.56397247,6.39738395 5.3882709,6.47233918 L4.64326023,6.8605028 C3.33642272,7.54138824 2.51650993,8.89452593 2.51650993,10.3703715 L2.51650993,19.426199 C2.51650993,20.0504456 3.02157333,20.5564973 3.64460055,20.5564973 C3.7844282,20.5564973 3.92256197,20.5304557 4.05210006,20.4801765 L14.0607695,14.8526994 C14.9446986,14.3557012 15.4895525,13.4265352 15.4895525,12.4211781 L15.4895525,1.21724429 Z M27.6382211,9.73795434 L18.0569851,14.7466427 C17.8861309,14.8359585 17.7126411,14.918094 17.5369395,14.9930492 L16.7919289,15.3812129 C15.4850913,16.0620983 14.6651786,17.415236 14.6651786,18.8910815 L14.6651786,27.9469091 C14.6651786,28.5711556 15.170242,29.0772073 15.7932692,29.0772073 C15.9330968,29.0772073 16.0712306,29.0511657 16.2007687,29.0008866 L26.2094381,23.3734094 C27.0933672,22.8764113 27.6382211,21.9472452 27.6382211,20.9418881 L27.6382211,9.73795434 Z" id="Combined-Shape" fill-rule="nonzero"></path>
                </g>
            </g>
        </g>
    </g>
</svg>