<?xml version="1.0" encoding="UTF-8"?>
<svg width="342px" height="348px" viewBox="0 0 342 348" version="1.1" xmlns="http://www.w3.org/2000/svg" xmlns:xlink="http://www.w3.org/1999/xlink">
    <!-- Generator: Sketch 53.2 (72643) - https://sketchapp.com -->
    <title>Group 12</title>
    <desc>Created with Sketch.</desc>
    <g id="Page-1" stroke="none" stroke-width="1" fill="none" fill-rule="evenodd">
        <g id="Artboard" transform="translate(-79.000000, -152.000000)">
            <g id="Group-12" transform="translate(79.000000, 152.000000)">
                <g id="Group-2" transform="translate(21.000000, 230.000000)" fill="#5A45FF">
                    <g id="Group-Copy-5" transform="translate(0.000000, 55.000000)">
                        <circle id="Oval" cx="1.5" cy="1.5" r="1.5"></circle>
                        <circle id="Oval-Copy-7" cx="78.5" cy="1.5" r="1.5"></circle>
                        <circle id="Oval-Copy-6" cx="67.5" cy="1.5" r="1.5"></circle>
                        <circle id="Oval-Copy-5" cx="56.5" cy="1.5" r="1.5"></circle>
                        <circle id="Oval-Copy-4" cx="45.5" cy="1.5" r="1.5"></circle>
                        <circle id="Oval-Copy-3" cx="34.5" cy="1.5" r="1.5"></circle>
                        <circle id="Oval-Copy-2" cx="23.5" cy="1.5" r="1.5"></circle>
                        <circle id="Oval-Copy" cx="12.5" cy="1.5" r="1.5"></circle>
                    </g>
                    <g id="Group-Copy-4" transform="translate(0.000000, 44.000000)">
                        <circle id="Oval" cx="1.5" cy="1.5" r="1.5"></circle>
                        <circle id="Oval-Copy-7" cx="78.5" cy="1.5" r="1.5"></circle>
                        <circle id="Oval-Copy-6" cx="67.5" cy="1.5" r="1.5"></circle>
                        <circle id="Oval-Copy-5" cx="56.5" cy="1.5" r="1.5"></circle>
                        <circle id="Oval-Copy-4" cx="45.5" cy="1.5" r="1.5"></circle>
                        <circle id="Oval-Copy-3" cx="34.5" cy="1.5" r="1.5"></circle>
                        <circle id="Oval-Copy-2" cx="23.5" cy="1.5" r="1.5"></circle>
                        <circle id="Oval-Copy" cx="12.5" cy="1.5" r="1.5"></circle>
                    </g>
                    <g id="Group-Copy-3" transform="translate(0.000000, 33.000000)">
                        <circle id="Oval" cx="1.5" cy="1.5" r="1.5"></circle>
                        <circle id="Oval-Copy-7" cx="78.5" cy="1.5" r="1.5"></circle>
                        <circle id="Oval-Copy-6" cx="67.5" cy="1.5" r="1.5"></circle>
                        <circle id="Oval-Copy-5" cx="56.5" cy="1.5" r="1.5"></circle>
                        <circle id="Oval-Copy-4" cx="45.5" cy="1.5" r="1.5"></circle>
                        <circle id="Oval-Copy-3" cx="34.5" cy="1.5" r="1.5"></circle>
                        <circle id="Oval-Copy-2" cx="23.5" cy="1.5" r="1.5"></circle>
                        <circle id="Oval-Copy" cx="12.5" cy="1.5" r="1.5"></circle>
                    </g>
                    <g id="Group-Copy-2" transform="translate(0.000000, 22.000000)">
                        <circle id="Oval" cx="1.5" cy="1.5" r="1.5"></circle>
                        <circle id="Oval-Copy-7" cx="78.5" cy="1.5" r="1.5"></circle>
                        <circle id="Oval-Copy-6" cx="67.5" cy="1.5" r="1.5"></circle>
                        <circle id="Oval-Copy-5" cx="56.5" cy="1.5" r="1.5"></circle>
                        <circle id="Oval-Copy-4" cx="45.5" cy="1.5" r="1.5"></circle>
                        <circle id="Oval-Copy-3" cx="34.5" cy="1.5" r="1.5"></circle>
                        <circle id="Oval-Copy-2" cx="23.5" cy="1.5" r="1.5"></circle>
                        <circle id="Oval-Copy" cx="12.5" cy="1.5" r="1.5"></circle>
                    </g>
                    <g id="Group-Copy" transform="translate(0.000000, 11.000000)">
                        <circle id="Oval" cx="1.5" cy="1.5" r="1.5"></circle>
                        <circle id="Oval-Copy-7" cx="78.5" cy="1.5" r="1.5"></circle>
                        <circle id="Oval-Copy-6" cx="67.5" cy="1.5" r="1.5"></circle>
                        <circle id="Oval-Copy-5" cx="56.5" cy="1.5" r="1.5"></circle>
                        <circle id="Oval-Copy-4" cx="45.5" cy="1.5" r="1.5"></circle>
                        <circle id="Oval-Copy-3" cx="34.5" cy="1.5" r="1.5"></circle>
                        <circle id="Oval-Copy-2" cx="23.5" cy="1.5" r="1.5"></circle>
                        <circle id="Oval-Copy" cx="12.5" cy="1.5" r="1.5"></circle>
                    </g>
                    <g id="Group">
                        <circle id="Oval" cx="1.5" cy="1.5" r="1.5"></circle>
                        <circle id="Oval-Copy-7" cx="78.5" cy="1.5" r="1.5"></circle>
                        <circle id="Oval-Copy-6" cx="67.5" cy="1.5" r="1.5"></circle>
                        <circle id="Oval-Copy-5" cx="56.5" cy="1.5" r="1.5"></circle>
                        <circle id="Oval-Copy-4" cx="45.5" cy="1.5" r="1.5"></circle>
                        <circle id="Oval-Copy-3" cx="34.5" cy="1.5" r="1.5"></circle>
                        <circle id="Oval-Copy-2" cx="23.5" cy="1.5" r="1.5"></circle>
                        <circle id="Oval-Copy" cx="12.5" cy="1.5" r="1.5"></circle>
                    </g>
                </g>
                <rect id="Rectangle" fill-opacity="0.15" fill="#5A45FF" x="45" y="35" width="250" height="313"></rect>
                <g id="Group-3" transform="translate(237.224341, 19.187445)" fill="#5A45FF" fill-rule="nonzero">
                    <polygon id="Path" points="0.353553391 34.3797004 -0.353553391 33.6725937 33.6725937 -0.353553391 34.3797004 0.353553391"></polygon>
                    <polygon id="Path-Copy" points="10.3535534 34.3797004 9.64644661 33.6725937 43.6725937 -0.353553391 44.3797004 0.353553391"></polygon>
                    <polygon id="Path-Copy-2" points="20.3535534 34.3797004 19.6464466 33.6725937 53.6725937 -0.353553391 54.3797004 0.353553391"></polygon>
                    <polygon id="Path-Copy-3" points="30.3535534 34.3797004 29.6464466 33.6725937 63.6725937 -0.353553391 64.3797004 0.353553391"></polygon>
                    <polygon id="Path-Copy-4" points="40.3535534 34.3797004 39.6464466 33.6725937 73.6725937 -0.353553391 74.3797004 0.353553391"></polygon>
                    <polygon id="Path-Copy-5" points="50.3535534 34.3797004 49.6464466 33.6725937 83.6725937 -0.353553391 84.3797004 0.353553391"></polygon>
                    <polygon id="Path-Copy-6" points="60.3535534 34.3797004 59.6464466 33.6725937 93.6725937 -0.353553391 94.3797004 0.353553391"></polygon>
                    <polygon id="Path-Copy-7" points="70.3535534 34.3797004 69.6464466 33.6725937 103.672594 -0.353553391 104.3797 0.353553391"></polygon>
                </g>
                <g id="Group-11" transform="translate(0.000000, 71.000000)">
                    <g id="Group-4">
                        <rect id="Rectangle-Copy-20" fill="#FFFFFF" x="0" y="0" width="90" height="116" rx="4"></rect>
                        <path d="M4,0.5 C2.06700338,0.5 0.5,2.06700338 0.5,4 L0.5,112 C0.5,113.932997 2.06700338,115.5 4,115.5 L86,115.5 C87.9329966,115.5 89.5,113.932997 89.5,112 L89.5,4 C89.5,2.06700338 87.9329966,0.5 86,0.5 L4,0.5 Z M4,0 L86,0 C88.209139,-4.05812251e-16 90,1.790861 90,4 L90,112 C90,114.209139 88.209139,116 86,116 L4,116 C1.790861,116 2.705415e-16,114.209139 0,112 L0,4 C-2.705415e-16,1.790861 1.790861,4.05812251e-16 4,0 Z" id="Rectangle" fill="#CFD1D3" fill-rule="nonzero"></path>
                        <polygon id="Path-2" fill="#CFD1D3" fill-rule="nonzero" points="0 5.09037883 0 4.59037883 90 4.59037883 90 5.09037883"></polygon>
                        <rect id="Rectangle" fill="#CFD1D3" x="3" y="2" width="1.5" height="1.5"></rect>
                        <rect id="Rectangle-Copy" fill="#CFD1D3" x="6" y="2" width="1.5" height="1.5"></rect>
                        <rect id="Rectangle-Copy-2" fill="#CFD1D3" x="9" y="2" width="1.5" height="1.5"></rect>
                    </g>
                    <g id="Group-10" transform="translate(0.500000, 5.000000)">
                        <rect id="Rectangle" fill="#EEEFF0" x="0" y="0" width="89" height="74"></rect>
                        <rect id="Rectangle" fill="#FFFFFF" x="21.5" y="39" width="46" height="25" rx="2"></rect>
                        <circle id="Oval" fill="#AAB2B5" cx="44.5" cy="51" r="5"></circle>
                        <polygon id="Triangle" fill="#FFFFFF" transform="translate(45.000000, 51.000000) rotate(90.000000) translate(-45.000000, -51.000000) " points="45 49.5 47 52.5 43 52.5"></polygon>
                        <rect id="Rectangle" fill="#EEEFF0" x="9.5" y="81" width="70" height="20" rx="2"></rect>
                        <rect id="Rectangle" fill="#AAB2B5" x="16.5" y="17" width="56" height="3"></rect>
                        <rect id="Rectangle-Copy-3" fill="#CCD0D2" x="27.5" y="23" width="34" height="3"></rect>
                    </g>
                </g>
                <g id="Group-9" transform="translate(250.000000, 144.000000)">
                    <g id="Group-4-Copy">
                        <rect id="Rectangle" fill="#FFFFFF" x="0" y="0" width="90" height="116" rx="4"></rect>
                        <path d="M4,0.5 C2.06700338,0.5 0.5,2.06700338 0.5,4 L0.5,112 C0.5,113.932997 2.06700338,115.5 4,115.5 L86,115.5 C87.9329966,115.5 89.5,113.932997 89.5,112 L89.5,4 C89.5,2.06700338 87.9329966,0.5 86,0.5 L4,0.5 Z M4,0 L86,0 C88.209139,-4.05812251e-16 90,1.790861 90,4 L90,112 C90,114.209139 88.209139,116 86,116 L4,116 C1.790861,116 2.705415e-16,114.209139 0,112 L0,4 C-2.705415e-16,1.790861 1.790861,4.05812251e-16 4,0 Z" id="Rectangle-Copy-21" fill="#CFD1D3" fill-rule="nonzero"></path>
                        <polygon id="Path-2" fill="#CFD1D3" fill-rule="nonzero" points="0 5.09037883 0 4.59037883 90 4.59037883 90 5.09037883"></polygon>
                        <rect id="Rectangle" fill="#CFD1D3" x="3" y="2" width="1.5" height="1.5"></rect>
                        <rect id="Rectangle-Copy" fill="#CFD1D3" x="6" y="2" width="1.5" height="1.5"></rect>
                        <rect id="Rectangle-Copy-2" fill="#CFD1D3" x="9" y="2" width="1.5" height="1.5"></rect>
                    </g>
                    <g id="Group-8" transform="translate(11.000000, 14.000000)">
                        <rect id="Rectangle" fill="#AAB2B5" x="0" y="0" width="54" height="3"></rect>
                        <rect id="Rectangle-Copy-4" fill="#CCD0D2" x="0" y="5" width="38" height="3"></rect>
                    </g>
                    <g id="Group-7" transform="translate(11.000000, 32.000000)">
                        <rect id="Rectangle" fill="#EEEFF0" x="0" y="0" width="49" height="69" rx="2"></rect>
                        <rect id="Rectangle" fill="#CCD0D2" x="4" y="5" width="26" height="2"></rect>
                        <rect id="Rectangle" fill="#FFFFFF" x="4" y="12" width="19" height="5" rx="1"></rect>
                        <rect id="Rectangle-Copy-6" fill="#FFFFFF" x="4" y="20" width="40" height="5" rx="1"></rect>
                        <rect id="Rectangle-Copy-10" fill="#FFFFFF" x="4" y="35" width="40" height="5" rx="1"></rect>
                        <rect id="Rectangle-Copy-11" fill="#FFFFFF" x="4" y="42" width="40" height="5" rx="1"></rect>
                        <rect id="Rectangle-Copy-12" fill="#FFFFFF" x="4" y="50" width="40" height="5" rx="1"></rect>
                        <rect id="Rectangle-Copy-13" fill="#AAB2B5" x="4" y="60" width="20" height="5" rx="1"></rect>
                        <rect id="Rectangle-Copy-7" fill="#FFFFFF" x="4" y="27.5" width="12" height="5" rx="1"></rect>
                        <rect id="Rectangle-Copy-8" fill="#FFFFFF" x="18" y="27.5" width="12" height="5" rx="1"></rect>
                        <rect id="Rectangle-Copy-9" fill="#FFFFFF" x="32" y="27.5" width="12" height="5" rx="1"></rect>
                        <rect id="Rectangle-Copy-5" fill="#FFFFFF" x="26" y="12" width="18" height="5" rx="1"></rect>
                    </g>
                    <g id="Group-6" transform="translate(65.000000, 32.000000)" fill="#EEEFF0">
                        <rect id="Rectangle-Copy-14" x="0" y="0" width="15" height="2.5" rx="0.5"></rect>
                        <rect id="Rectangle-Copy-15" x="0" y="5" width="15" height="2.5" rx="0.5"></rect>
                        <rect id="Rectangle-Copy-17" x="0" y="15" width="15" height="2.5" rx="0.5"></rect>
                        <rect id="Rectangle-Copy-19" x="0" y="25" width="14" height="2.5" rx="0.5"></rect>
                        <rect id="Rectangle-Copy-16" x="0" y="10" width="10" height="2.5" rx="0.5"></rect>
                        <rect id="Rectangle-Copy-18" x="0" y="20" width="10" height="2.5" rx="0.5"></rect>
                    </g>
                </g>
                <path d="M91.8131266,130.5 L91.8131266,129.5 L165.550058,129.5 C170.219154,129.5 172.630058,132.04615 172.630058,136.949122 L172.628999,195.954433 C172.912941,200.309289 174.688826,202.382811 178.036062,202.382811 L248.976143,202.382811 L248.976143,203.382811 L178.036062,203.382811 C174.108118,203.382811 171.946666,200.859101 171.630058,195.986965 L171.630058,136.949122 C171.630058,132.586598 169.654295,130.5 165.550058,130.5 L91.8131266,130.5 Z" id="Path-3" fill="#94939B" fill-rule="nonzero"></path>
                <path d="M91.8131266,167 L91.8131266,166 L131.782639,166.000015 C137.178879,166.042263 139.97408,168.640519 139.97408,173.653154 L139.97408,327 L138.97408,327 L138.97408,173.653154 C138.97408,169.208581 136.639044,167.038067 131.778725,167 L91.8131266,167 Z" id="Path-4" fill="#94939B" fill-rule="nonzero"></path>
                <path d="M91.8131261,98.0000457 L91.8131261,97.0000423 L94.8131272,97.0000423 L94.8131272,98.0000457 L91.8131261,98.0000457 Z M97.8131261,98.000039 L97.8131261,97.0000357 L100.813127,97.0000357 L100.813127,98.000039 L97.8131261,98.000039 Z M103.813126,98.0000323 L103.813126,97.000029 L106.813127,97.000029 L106.813127,98.0000323 L103.813126,98.0000323 Z M109.813126,98.0000256 L109.813126,97.0000223 L112.813127,97.0000223 L112.813127,98.0000256 L109.813126,98.0000256 Z M115.813126,98.000019 L115.813126,97.0000156 L118.813127,97.0000156 L118.813127,98.000019 L115.813126,98.000019 Z M121.813126,98.0000123 L121.813126,97.0000089 L124.813127,97.0000089 L124.813127,98.0000123 L121.813126,98.0000123 Z M127.813126,98.0000056 L127.813126,97.0000022 L130.813127,97.0000022 L130.813127,98.0000056 L127.813126,98.0000056 Z M133.872516,97.9083864 L133.746638,96.9163408 C134.80951,96.781475 135.715284,96.5211642 136.465363,96.138434 L136.919868,97.0291782 C136.06057,97.4676379 135.044318,97.7596988 133.872516,97.9083864 Z M139.337227,94.791993 L138.475818,94.284081 C138.906774,93.5531868 139.1701,92.6661717 139.26222,91.6182972 L140.258378,91.7058706 C140.153791,92.8955585 139.847933,93.9258454 139.337227,94.791993 Z M140.299255,88.6937405 L139.299255,88.6937405 L139.299255,85.6937405 L140.299255,85.6937405 L140.299255,88.6937405 Z M140.299255,82.6937405 L139.299255,82.6937405 L139.299255,79.6937405 L140.299255,79.6937405 L140.299255,82.6937405 Z M140.299255,76.6937405 L139.299255,76.6937405 L139.299255,73.6937405 L140.299255,73.6937405 L140.299255,76.6937405 Z M140.299255,70.6937405 L139.299255,70.6937405 L139.299255,67.6937405 L140.299255,67.6937405 L140.299255,70.6937405 Z M140.299255,64.6937405 L139.299255,64.6937405 L139.299255,61.6937405 L140.299255,61.6937405 L140.299255,64.6937405 Z M140.299255,58.6937405 L139.299255,58.6937405 L139.299255,55.6937405 L140.299255,55.6937405 L140.299255,58.6937405 Z M140.299255,52.6937405 L139.299255,52.6937405 L139.299255,49.6937405 L140.299255,49.6937405 L140.299255,52.6937405 Z M140.299255,46.6937405 L139.299255,46.6937405 L139.299255,43.6937405 L140.299255,43.6937405 L140.299255,46.6937405 Z M140.299255,40.6937405 L139.299255,40.6937405 L139.299255,37.6937405 L140.299255,37.6937405 L140.299255,40.6937405 Z M140.299255,34.6937405 L139.299255,34.6937405 L139.299255,31.6937405 L140.299255,31.6937405 L140.299255,34.6937405 Z M140.299255,28.6937405 L139.299255,28.6937405 L139.299255,25.6937405 L140.299255,25.6937405 L140.299255,28.6937405 Z M140.299255,22.6937405 L139.299255,22.6937405 L139.299255,19.6937405 L140.299255,19.6937405 L140.299255,22.6937405 Z M140.299255,16.6937405 L139.299255,16.6937405 L139.299255,13.6937405 L140.299255,13.6937405 L140.299255,16.6937405 Z M140.299255,10.6937405 L139.299255,10.6937405 L139.299255,7.69374053 L140.299255,7.69374053 L140.299255,10.6937405 Z" id="Path-5" fill="#94939B" fill-rule="nonzero"></path>
                <path d="M275,262 L276,262 L276,265 L275,265 L275,262 Z M275,268 L276,268 L276,271 L275,271 L275,268 Z M275,274 L276,274 L276,277 L275,277 L275,274 Z M275,280 L276,280 L276,283 L275,283 L275,280 Z M275,286 L276,286 L275.998564,288.824834 C275.992888,288.899554 275.98651,288.973594 275.979429,289.046955 L274.984055,288.950879 C274.990479,288.884319 274.996273,288.817056 275,288.786962 L275,286 Z M274.187742,291.617895 L275.044141,292.13421 C274.454311,293.112546 273.603478,293.827397 272.505802,294.269718 L272.132045,293.342191 C273.03069,292.980072 273.711202,292.408322 274.187742,291.617895 Z M269.243581,293.809253 L269.243581,294.809253 L266.243581,294.809253 L266.243581,293.809253 L269.243581,293.809253 Z M263.243581,293.809253 L263.243581,294.809253 L260.243581,294.809253 L260.243581,293.809253 L263.243581,293.809253 Z M257.243581,293.809253 L257.243581,294.809253 L254.243581,294.809253 L254.243581,293.809253 L257.243581,293.809253 Z M251.243581,293.809253 L251.243581,294.809253 L248.243581,294.809253 L248.243581,293.809253 L251.243581,293.809253 Z M245.243581,293.809253 L245.243581,294.809253 L242.243581,294.809253 L242.243581,293.809253 L245.243581,293.809253 Z M239.243581,293.809253 L239.243581,294.809253 L236.243581,294.809253 L236.243581,293.809253 L239.243581,293.809253 Z M233.243581,293.809253 L233.243581,294.809253 L230.243581,294.809253 L230.243581,293.809253 L233.243581,293.809253 Z M227.243581,293.809253 L227.243581,294.809253 L224.243581,294.809253 L224.243581,293.809253 L227.243581,293.809253 Z M221.195356,293.822729 L221.293514,294.8179 C220.2311,294.922691 219.306642,295.141782 218.519504,295.472935 L218.131719,294.551185 C219.016468,294.178967 220.037892,293.936895 221.195356,293.822729 Z M215.521251,296.484333 L216.30517,297.105196 C215.762823,297.789978 215.388623,298.631344 215.184007,299.635738 L214.204134,299.436117 C214.439024,298.283121 214.877584,297.297045 215.521251,296.484333 Z M214,302.517265 L215,302.517265 L215,305.517265 L214,305.517265 L214,302.517265 Z M214,308.517265 L215,308.517265 L215,311.517265 L214,311.517265 L214,308.517265 Z M214,314.517265 L215,314.517265 L215,317.517265 L214,317.517265 L214,314.517265 Z M214,320.517265 L215,320.517265 L215,323.517265 L214,323.517265 L214,320.517265 Z M214,326.517265 L215,326.517265 L215,327 L214,327 L214,326.517265 Z" id="Path-6" fill="#94939B" fill-rule="nonzero"></path>
                <g id="Group-5" transform="translate(88.000000, 0.000000)" fill="#5A45FF">
                    <circle id="Oval" cx="2.5" cy="130" r="2.5"></circle>
                    <circle id="Oval-Copy-9" cx="2.5" cy="97.5" r="2.5"></circle>
                    <circle id="Oval-Copy-10" cx="187.5" cy="259.5" r="2.5"></circle>
                    <circle id="Oval-Copy-8" cx="2.5" cy="166.5" r="2.5"></circle>
                    <polygon id="Triangle" transform="translate(162.500000, 203.000000) rotate(90.000000) translate(-162.500000, -203.000000) " points="162.5 200.5 165 205.5 160 205.5"></polygon>
                    <polygon id="Triangle-Copy-3" points="52 0 54.5 5 49.5 5"></polygon>
                    <polygon id="Triangle-Copy" transform="translate(51.500000, 329.500000) rotate(180.000000) translate(-51.500000, -329.500000) " points="51.5 327 54 332 49 332"></polygon>
                    <polygon id="Triangle-Copy-2" transform="translate(126.500000, 329.500000) rotate(180.000000) translate(-126.500000, -329.500000) " points="126.5 327 129 332 124 332"></polygon>
                </g>
            </g>
        </g>
    </g>
</svg>